<svg width="512" height="512" viewBox="0 0 512 512" fill="none" xmlns="http://www.w3.org/2000/svg">
<rect x="50" y="50" width="412" height="412" rx="110" fill="white"/>
<path d="M256.001 247.268V207.251H215.984C211.026 193.217 210.986 177.915 215.87 163.856C220.754 149.796 230.273 137.814 242.863 129.877C255.454 121.939 270.369 118.518 285.16 120.173C299.951 121.828 313.741 128.462 324.265 138.987C334.79 149.511 341.424 163.301 343.079 178.092C344.735 192.883 341.313 207.798 333.375 220.389C325.438 232.979 313.456 242.498 299.396 247.382C285.337 252.266 270.035 252.226 256.001 247.268Z" fill="black"/>
<path d="M387.25 367.667H256L321.625 251L387.25 367.667Z" fill="black"/>
<path d="M124.75 221.832H241.417V338.499H124.75V221.832Z" fill="black"/>
</svg>
