<svg xmlns="http://www.w3.org/2000/svg" width="800" height="500" viewBox="0 0 800 500">
  <defs>
    <linearGradient id="bg" x1="0%" y1="0%" x2="100%" y2="100%">
      <stop offset="0%" style="stop-color:#2563eb"/>
      <stop offset="100%" style="stop-color:#7c3aed"/>
    </linearGradient>
    <linearGradient id="hex" x1="0%" y1="0%" x2="100%" y2="100%">
      <stop offset="0%" style="stop-color:#3b82f6"/>
      <stop offset="100%" style="stop-color:#8b5cf6"/>
    </linearGradient>
  </defs>
  <rect width="800" height="500" fill="url(#bg)"/>
  <polygon points="340,140 400,105 460,140 460,210 400,245 340,210" fill="white" opacity="0.9"/>
  <polygon points="340,220 400,185 460,220 460,290 400,325 340,290" fill="white" opacity="0.7"/>
  <polygon points="340,300 400,265 460,300 460,370 400,405 340,370" fill="white" opacity="0.5"/>
  <text x="400" y="185" text-anchor="middle" font-size="28" fill="#2563eb" font-weight="bold">LOGO</text>
  <text x="400" y="265" text-anchor="middle" font-size="28" fill="#7c3aed" font-weight="bold">LOGO</text>
  <text x="400" y="345" text-anchor="middle" font-size="28" fill="#2563eb" font-weight="bold">LOGO</text>
  <rect x="280" y="420" width="240" height="40" rx="20" fill="white" opacity="0.2"/>
  <text x="400" y="446" text-anchor="middle" font-size="16" fill="white" font-weight="600">Free Download</text>
  <circle cx="150" cy="100" r="50" fill="#3b82f6" opacity="0.15"/>
  <circle cx="700" cy="400" r="70" fill="#8b5cf6" opacity="0.12"/>
</svg>
