<svg width="512" height="512" viewBox="0 0 512 512" fill="none" xmlns="http://www.w3.org/2000/svg">
<rect x="50" y="50" width="412" height="412" rx="110" fill="url(#paint0_linear_1667_9)"/>
<path d="M350.752 121.187C356.195 120.067 361.296 124.225 361.296 129.782V178.242C361.296 178.242 361.296 178.243 361.297 178.243C361.297 178.243 361.298 178.243 361.298 178.244V318.635C361.298 345.241 348.846 355.91 336.026 360.04C331.13 362.31 325.546 363.598 319.619 363.598C300.235 363.598 284.521 349.848 284.521 332.887C284.521 332.172 284.55 331.462 284.605 330.759C284.607 330.733 284.589 330.71 284.563 330.706C284.539 330.702 284.521 330.681 284.522 330.656C284.556 313.127 305.378 298.892 326.2 297.796C347.039 296.699 345.942 284.633 345.942 278.053V193.866C345.942 189.698 342.117 186.579 338.034 187.42L232.731 209.101C229.672 209.73 227.478 212.423 227.478 215.546V346.036C227.477 372.643 215.026 383.313 202.206 387.442C197.31 389.712 191.726 391 185.799 391C166.415 391 150.701 377.25 150.701 360.289C150.701 359.574 150.73 358.865 150.785 358.162C150.787 358.136 150.769 358.113 150.743 358.108C150.719 358.104 150.701 358.083 150.701 358.058C150.735 340.529 171.558 326.293 192.38 325.197C213.218 324.1 212.122 312.036 212.122 305.455V205.649C212.122 205.647 212.124 205.645 212.126 205.645C212.128 205.645 212.13 205.644 212.13 205.641V160.455C212.13 154.209 216.52 148.824 222.638 147.564L350.752 121.187Z" fill="white"/>
<defs>
<linearGradient id="paint0_linear_1667_9" x1="256" y1="50" x2="256" y2="462" gradientUnits="userSpaceOnUse">
<stop stop-color="#FB5976"/>
<stop offset="1" stop-color="#FA243B"/>
</linearGradient>
</defs>
</svg>
