<?xml version="1.0" encoding="UTF-8"?>
<svg version="1.1" xmlns="http://www.w3.org/2000/svg" width="16" height="16" viewBox="0 0 512 512">
<path d="M0 0 C0.89996704 0.00054382 1.79993408 0.00108765 2.72717285 0.00164795 C44.62322613 0.11770093 86.05012841 12.59592433 120.125 37.375 C120.96901367 37.98577393 120.96901367 37.98577393 121.83007812 38.60888672 C130.10831452 44.65449331 137.72143208 51.29507161 145.125 58.375 C146.05183594 59.24898437 146.97867187 60.12296875 147.93359375 61.0234375 C155.08323313 67.93982623 161.21620822 75.38917838 167.125 83.375 C167.52460938 83.91382812 167.92421875 84.45265625 168.3359375 85.0078125 C174.71527509 93.69912478 180.11845029 102.84086653 185.125 112.375 C185.46917969 113.02919922 185.81335938 113.68339844 186.16796875 114.35742188 C194.36157701 130.19525854 204.125 151.26642379 204.125 169.375 C202.34657715 170.08027832 202.34657715 170.08027832 200.53222656 170.79980469 C187.59153527 175.94581639 174.72328857 181.25307599 161.875 186.625 C159.79775674 187.49210613 157.720444 188.35904582 155.64306641 189.22583008 C151.32523466 191.02763576 147.00769941 192.83014887 142.69042969 194.63330078 C132.9828229 198.68755649 123.27338246 202.73741089 113.56311035 206.78527832 C110.605266 208.01860735 107.64782733 209.25290497 104.69042969 210.48730469 C99.17135007 212.78980167 93.6488697 215.08402227 88.125 217.375 C87.1105481 217.79654358 86.09609619 218.21808716 85.05090332 218.65240479 C81.98603805 219.92447699 78.91911155 221.1914466 75.8515625 222.45703125 C74.9052597 222.85041183 73.95895691 223.24379242 72.98397827 223.64909363 C72.11350861 224.00699478 71.24303894 224.36489594 70.34619141 224.73364258 C69.57739655 225.05142166 68.80860168 225.36920074 68.01651001 225.6966095 C66.125 226.375 66.125 226.375 64.125 226.375 C64.269375 225.58738281 64.41375 224.79976562 64.5625 223.98828125 C67.8995028 204.40656346 66.0089097 185.34041249 54.375 168.6875 C43.15356925 154.17055613 28.60541849 144.17585663 10.125 141.375 C-9.40010469 140.19995248 -27.640866 143.29242166 -42.91162109 156.35693359 C-57.51277415 169.68720229 -65.34890376 187.20106533 -66.25 206.875 C-65.29818958 226.16746496 -57.77065422 243.1767282 -43.6875 256.5 C-27.79384196 270.02307854 -10.12542488 273.59076232 10.125 272.375 C17.23007707 271.28710541 23.37394679 268.90664495 30.125 266.375 C30.125 287.495 30.125 308.615 30.125 330.375 C26.165 332.025 22.205 333.675 18.125 335.375 C10.7949591 339.0802954 4.34038654 343.00820867 -1.875 348.375 C-2.55304688 348.95765625 -3.23109375 349.5403125 -3.9296875 350.140625 C-20.460096 365.44894104 -25.90991588 387.23908145 -26.76171875 408.89453125 C-26.79910156 410.04308594 -26.83648437 411.19164062 -26.875 412.375 C-69.29198502 406.68689856 -108.76830118 388.90267858 -139.875 359.375 C-141.22379668 358.22285031 -142.5776303 357.07655917 -143.9375 355.9375 C-157.94214713 343.66217164 -169.80765952 327.55800398 -178.875 311.375 C-179.28959473 310.64925781 -179.70418945 309.92351562 -180.13134766 309.17578125 C-207.45332563 260.96168266 -213.80201871 204.05103304 -199.375 150.7109375 C-190.63504476 119.82423126 -175.06673872 92.37722846 -153.875 68.375 C-153.153125 67.53066406 -152.43125 66.68632813 -151.6875 65.81640625 C-148.01671391 61.56489032 -144.21189084 57.73055494 -139.91796875 54.109375 C-138.54117323 52.94054668 -137.18956434 51.74147112 -135.86328125 50.515625 C-110.83639722 27.38541794 -78.65004858 12.28118471 -45.6875 4.625 C-44.83365723 4.42616211 -43.97981445 4.22732422 -43.10009766 4.02246094 C-28.72320048 0.8505665 -14.6638763 -0.03344831 0 0 Z " fill="#000000" transform="translate(243.875,31.625)"/>
<path d="M0 0 C4.92006067 2.32584686 7.31231435 5.32143608 10 10 C11.13349745 13.40049234 11.13159369 15.99536476 11.14044189 19.58201599 C11.14341302 20.25398217 11.14638414 20.92594834 11.1494453 21.61827713 C11.1581321 23.87500655 11.15964057 26.13168291 11.16113281 28.38842773 C11.16576126 30.00484836 11.17078596 31.6212679 11.17617798 33.23768616 C11.18930759 37.6348678 11.19574887 42.03203417 11.20018864 46.42923236 C11.20312048 49.17935119 11.20722566 51.92946586 11.21169281 54.6795826 C11.22537367 63.29198418 11.23503555 71.90437624 11.2388947 80.51678795 C11.24336701 90.44239692 11.26087389 100.36786761 11.2898953 110.29343456 C11.31156682 117.97345204 11.32160201 125.6534308 11.32293582 133.33347851 C11.3239806 137.91584372 11.32981756 142.49807904 11.34775543 147.08041191 C11.36432927 151.39865924 11.36634681 155.7166804 11.35761642 160.03494835 C11.35685081 161.61183532 11.36112527 163.1887349 11.37107468 164.76559067 C11.46322008 180.29236827 9.31205683 195.42487208 -2 207 C-12.78959606 216.25486903 -24.73777738 220.65478038 -39.0234375 219.82421875 C-51.4396106 218.2110939 -61.6382506 212.22624399 -70 203 C-78.45473948 191.79255464 -80.3960248 179.70013961 -79 166 C-76.60013081 153.52925116 -69.2150791 143.37390758 -59 136 C-47.12375015 128.68437901 -35.43043879 128.55810204 -22 131 C-22.33 119.45 -22.66 107.9 -23 96 C-27.02960938 97.68802734 -27.02960938 97.68802734 -31.140625 99.41015625 C-77.5465814 118.84707798 -77.5465814 118.84707798 -100.09075928 128.20715332 C-101.94174083 128.97580683 -103.79240877 129.74521539 -105.64306641 130.51464844 C-108.8020252 131.82639261 -111.9629796 133.13315666 -115.125 134.4375 C-116.46751831 134.99546265 -116.46751831 134.99546265 -117.8371582 135.56469727 C-118.63597412 135.89268311 -119.43479004 136.22066895 -120.2578125 136.55859375 C-120.9398877 136.84017334 -121.62196289 137.12175293 -122.32470703 137.41186523 C-124 138 -124 138 -126 138 C-125.99111755 138.88568161 -125.98223511 139.77136322 -125.9730835 140.68388367 C-125.89251094 149.08269866 -125.83182058 157.48138148 -125.79275131 165.88049603 C-125.77198925 170.19727424 -125.74388343 174.51372972 -125.69824219 178.83032227 C-125.65437344 183.0060163 -125.63077763 187.18140242 -125.62049103 191.35730934 C-125.61317246 192.94032441 -125.5988839 194.52332507 -125.57707977 196.10620689 C-125.3723638 211.60193376 -128.11396413 225.24568204 -138.87890625 237.0625 C-149.5178463 247.035163 -162.06239048 249.70276347 -176.1875 249.375 C-188.39231666 248.70335128 -198.10580233 242.45024433 -206.25 233.6875 C-215.03945431 222.79834271 -217.08514607 210.6536101 -216 197 C-213.57284169 183.94857387 -206.72505837 173.7545108 -196 166 C-186.56546601 160.10529117 -174.6553195 157.68654716 -163.74438477 159.99584961 C-162.85316422 160.18207382 -161.96194366 160.36829803 -161.04371643 160.56016541 C-160.36929001 160.70531082 -159.69486359 160.85045624 -159 161 C-159.00888245 159.84821259 -159.01776489 158.69642517 -159.0269165 157.50973511 C-159.10803038 146.6511444 -159.16797899 135.79261523 -159.20724869 124.93379021 C-159.22811644 119.35123942 -159.25641969 113.76893337 -159.30175781 108.18652344 C-159.34524388 102.79838788 -159.36914322 97.41048761 -159.37950897 92.02219009 C-159.38689533 89.96728944 -159.40131919 87.91240155 -159.42292023 85.85760117 C-159.45199056 82.97753906 -159.45595444 80.09844712 -159.45410156 77.21826172 C-159.46848267 76.37021469 -159.48286377 75.52216766 -159.49768066 74.64842224 C-159.46032838 69.27677381 -158.53583388 66.28044565 -155 62 C-151.26002814 58.44716729 -147.09195722 56.50848646 -142.37890625 54.55859375 C-141.24696083 54.07921356 -141.24696083 54.07921356 -140.09214783 53.59014893 C-137.58554695 52.5312768 -135.07417368 51.48427632 -132.5625 50.4375 C-130.77191305 49.68452922 -128.98155325 48.93101808 -127.19140625 48.17700195 C-111.12995324 41.42463275 -95.02156381 34.78372343 -78.9107666 28.15014648 C-62.9764378 21.5885193 -47.07102212 14.95804521 -31.16796875 8.32104492 C-29.69790123 7.70770294 -29.69790123 7.70770294 -28.19813538 7.08197021 C-26.36874633 6.31862959 -24.53950276 5.55494018 -22.71043396 4.79083252 C-20.47474891 3.85781605 -18.23750875 2.9286311 -16 2 C-15.03707031 1.59644287 -14.07414063 1.19288574 -13.08203125 0.77709961 C-8.86419006 -0.79717203 -4.41596822 -0.51952567 0 0 Z " fill="#000000" transform="translate(464,231)"/>
<path d="M0 0 C4.1796989 2.8497947 7.11864324 5.98092971 8.75 10.875 C9.56917001 16.80813138 8.84780062 21.21857879 5.3671875 26.14453125 C1.63998442 30.1328186 -2.47632296 31.65718001 -7.8125 32.3125 C-13.31084557 31.61271056 -17.46562684 30.10220693 -21.125 25.875 C-24.7395676 20.77208104 -24.93322799 15.957627 -24.25 9.875 C-19.29948706 -0.02602588 -10.32307103 -3.57337074 0 0 Z " fill="#000000" transform="translate(252.25,223.125)"/>
</svg>
